<svg xmlns="http://www.w3.org/2000/svg" viewBox="0 0 22.03 34.08"><defs><style>.a{isolation:isolate;}</style></defs><title>CV-2</title><g class="a"><path d="M11,36.14a4.71,4.71,0,0,1-1.44,3.45A4.7,4.7,0,0,1,6.12,41a4.71,4.71,0,0,1-3.46-1.44,4.71,4.71,0,0,1-1.44-3.45V11.85A4.71,4.71,0,0,1,2.66,8.4,4.71,4.71,0,0,1,6.12,7,4.7,4.7,0,0,1,9.58,8.4,4.71,4.71,0,0,1,11,11.85v5.42H7.75V9.75a2,2,0,0,0-.48-1.36A1.46,1.46,0,0,0,5,8.39a2,2,0,0,0-.48,1.36v28.5A2,2,0,0,0,5,39.6a1.46,1.46,0,0,0,2.31,0,2,2,0,0,0,.48-1.35V30.72H11ZM3.39,39.37a4.5,4.5,0,0,1-.54-2.32V10.94a4.47,4.47,0,0,1,.54-2.3A3.49,3.49,0,0,0,2,11.53v25A3.52,3.52,0,0,0,3.39,39.37Zm6-22.95V11.08a3.56,3.56,0,0,0-1.47-3,3.86,3.86,0,0,1,.66,2.36v6Zm0,20.49V31.59H8.57v6a3.82,3.82,0,0,1-.66,2.34A3.56,3.56,0,0,0,9.38,36.91Z" transform="translate(-1.22 -6.96)"/><path d="M23.25,8.06h-1L19.36,40.8H16.12L13.45,8.06h-1V7.19h5.3v.87h-1l2.14,28.76L21.22,8.06h-1V7.19h3.07ZM17.73,39.93,15.08,8.06h-.82l2.67,31.87Z" transform="translate(-1.22 -6.96)"/></g></svg>