<svg xmlns="http://www.w3.org/2000/svg" viewBox="0 0 59.74 42.95"><defs><style>.a{isolation:isolate;}</style></defs><title>CV-3</title><g class="a"><path d="M19,10.89a22.7,22.7,0,0,1,4,.36,12,12,0,0,1,3.2,1,3,3,0,0,1,1.43,1.25A4.31,4.31,0,0,1,28,15.37v4.42l-3.55-.2c-1.18-.06-2.46-.09-3.86-.09a8.39,8.39,0,0,0-3.31.56,4.21,4.21,0,0,0-2,2,10.9,10.9,0,0,0-1,3.86A58.45,58.45,0,0,0,14,32.1a55.56,55.56,0,0,0,.3,6.39,12.94,12.94,0,0,0,1,4,4.32,4.32,0,0,0,1.88,2.09,6.12,6.12,0,0,0,2.84.59c1.31,0,2.51,0,3.61-.11s2-.12,2.66-.12a1.9,1.9,0,0,1,2.15,2.15V52A26.38,26.38,0,0,1,24,53.34a30.22,30.22,0,0,1-6.07.51,17.33,17.33,0,0,1-6-1,10.28,10.28,0,0,1-4.6-3.43,17.53,17.53,0,0,1-2.93-6.58,45.09,45.09,0,0,1-1-10.45,51.42,51.42,0,0,1,.86-10.22A16.85,16.85,0,0,1,7,15.55,10.39,10.39,0,0,1,11.85,12,21.14,21.14,0,0,1,19,10.89Z" transform="translate(-3.37 -10.89)"/><path d="M61,11.67a2.19,2.19,0,0,1,1.61.54A2.46,2.46,0,0,1,63.11,14q0,.54-.06,1.14a9.88,9.88,0,0,1-.18,1.13Q61.49,24.58,59.46,34A147.15,147.15,0,0,1,54,53.07H43.51a2.42,2.42,0,0,1-1.82-.6,3.53,3.53,0,0,1-.81-1.25q-1.6-4.72-3-9.8T35.42,31.23q-1.11-5.1-1.94-10.06c-.56-3.31-1-6.47-1.44-9.5h9.14a2,2,0,0,1,2.21,2.15q.3,2.75.75,6.27t1,7.44q.56,3.91,1.31,7.92c.5,2.67,1,5.23,1.58,7.7.56-2.47,1.09-5,1.59-7.7s1-5.36,1.37-8.07.78-5.38,1.07-8,.53-5.21.69-7.68Z" transform="translate(-3.37 -10.89)"/></g></svg>