<svg xmlns="http://www.w3.org/2000/svg" viewBox="0 0 61.8 73.43"><title>logo-makers</title><polygon points="31.2 20.6 0 0 0 61.8 61.8 61.8 61.8 0 31.2 20.6"/><path d="M8,74.11q0-.73,0-1.59c0-.57,0-1.15,0-1.73s0-1.17,0-1.74,0-1.12,0-1.62L6.05,72.2h-.9a.27.27,0,0,1-.22-.08.69.69,0,0,1-.1-.21L3.2,67.43c0,.52,0,1.08-.05,1.68s0,1.2,0,1.81,0,1.22-.05,1.81,0,1.15,0,1.66h-1c-.2,0-.3-.09-.3-.28q0-2,.12-4.08c.06-1.37.14-2.79.22-4.27H3.44c.16,0,.27.09.34.28l1.74,4.84,1.84-5.12H8.61a.25.25,0,0,1,.21.07A.33.33,0,0,1,8.9,66c.09,1.37.17,2.75.23,4.12s.09,2.79.11,4.23h-1C8.06,74.39,8,74.3,8,74.11Z" transform="translate(-1 -1.1)"/><path d="M15.27,74.11c-.06-.38-.12-.73-.18-1.08s-.13-.69-.2-1H12.08c-.09.4-.17.8-.24,1.21s-.13.8-.19,1.19h-1c-.18,0-.27-.1-.26-.31a5.84,5.84,0,0,1,.11-.73q.22-1.21.51-2.31T11.61,69c.19-.65.39-1.24.59-1.78s.38-1,.56-1.43H14a.37.37,0,0,1,.23.06.43.43,0,0,1,.12.2c.18.42.37.93.59,1.52s.41,1.25.62,2,.4,1.5.59,2.32.34,1.68.48,2.56H15.58A.29.29,0,0,1,15.27,74.11Zm-1.79-7.28c-.21.59-.41,1.23-.63,1.91s-.41,1.43-.61,2.23h2.49c-.19-.8-.4-1.54-.61-2.23S13.69,67.42,13.48,66.83Z" transform="translate(-1 -1.1)"/><path d="M23.41,66.27A14.81,14.81,0,0,1,22.12,68a16.11,16.11,0,0,1-1.89,1.9,10.65,10.65,0,0,1,.95.88c.33.35.65.71,1,1.1s.61.8.9,1.22.55.85.78,1.27H22.58a.39.39,0,0,1-.3-.1,1.88,1.88,0,0,1-.16-.23,22,22,0,0,0-1.46-2,18,18,0,0,0-1.46-1.57v3.88h-1c-.21,0-.31-.09-.31-.28V65.76h1c.2,0,.3.09.3.28v3.43c.26-.24.53-.5.8-.78s.54-.59.81-.91.52-.65.77-1,.48-.68.7-1h1c.17,0,.26.07.26.23A.68.68,0,0,1,23.41,66.27Z" transform="translate(-1 -1.1)"/><path d="M29.5,65.76c.19,0,.29.09.29.28v.79H26.18v2.65h3a.26.26,0,0,1,.29.29v.8H26.18v2.75h3.46a.33.33,0,0,1,.22.08.29.29,0,0,1,.08.21v.78H25.16c-.21,0-.31-.09-.31-.28V65.76Z" transform="translate(-1 -1.1)"/><path d="M31.63,74.39c-.2,0-.3-.09-.3-.28v-8.2a12.25,12.25,0,0,1,1.25-.17,12.87,12.87,0,0,1,1.4-.07,3.1,3.1,0,0,1,2.19.65,2.61,2.61,0,0,1,.68,2,2.49,2.49,0,0,1-.43,1.52,2.41,2.41,0,0,1-1.16.84,7.64,7.64,0,0,1,.62.84c.2.33.39.66.58,1s.34.68.49,1a8.09,8.09,0,0,1,.34.88H36.2a.45.45,0,0,1-.26-.06.54.54,0,0,1-.13-.21c-.08-.21-.18-.45-.31-.72s-.27-.54-.43-.83-.33-.57-.51-.86a8.78,8.78,0,0,0-.57-.78H32.64v3.46Zm1-4.47H34a2.37,2.37,0,0,0,.61-.07,1.18,1.18,0,0,0,.49-.24,1.08,1.08,0,0,0,.32-.49,2.35,2.35,0,0,0,.12-.81,3,3,0,0,0-.1-.8,1.2,1.2,0,0,0-.3-.49,1,1,0,0,0-.5-.26,3,3,0,0,0-.71-.07c-.28,0-.54,0-.77,0a3.54,3.54,0,0,0-.55.06Z" transform="translate(-1 -1.1)"/><path d="M38.09,68a2.26,2.26,0,0,1,.68-1.78,3.14,3.14,0,0,1,2.11-.6,7.55,7.55,0,0,1,1.06.07,4.42,4.42,0,0,1,.82.17.48.48,0,0,1,.25.19.61.61,0,0,1,0,.24v.58l-1-.11c-.33,0-.66,0-1,0a3.72,3.72,0,0,0-.82.08,1.32,1.32,0,0,0-.52.23.78.78,0,0,0-.28.37,1.76,1.76,0,0,0,0,1.08.81.81,0,0,0,.29.38,2.15,2.15,0,0,0,.55.3l.82.3.92.37a2.76,2.76,0,0,1,.7.47,1.94,1.94,0,0,1,.46.69,3,3,0,0,1,.16,1A2.3,2.3,0,0,1,42.63,74a3.31,3.31,0,0,1-2.12.58,9,9,0,0,1-1.17-.08,4.8,4.8,0,0,1-.88-.19.47.47,0,0,1-.23-.16.49.49,0,0,1-.06-.25v-.63l1,.13a10.39,10.39,0,0,0,1.15.06,3.52,3.52,0,0,0,.87-.09,1.41,1.41,0,0,0,.55-.27.87.87,0,0,0,.27-.41,2,2,0,0,0,.07-.56A1.59,1.59,0,0,0,42,71.5a.86.86,0,0,0-.28-.38,2.68,2.68,0,0,0-.54-.29c-.22-.09-.5-.2-.84-.31s-.67-.26-.94-.39a2.5,2.5,0,0,1-.69-.48,1.91,1.91,0,0,1-.44-.67A2.75,2.75,0,0,1,38.09,68Z" transform="translate(-1 -1.1)"/><path d="M47.09,67.9a1.82,1.82,0,0,1,.12-.6,7.58,7.58,0,0,1,.33-.73l.42-.83h.52c.13,0,.2.06.2.18a.54.54,0,0,1,0,.19l-.47,1.1a.72.72,0,0,1,.43.25.71.71,0,0,1,.12.43.77.77,0,0,1-.19.58.87.87,0,0,1-.62.18.88.88,0,0,1-.63-.18A.74.74,0,0,1,47.09,67.9Z" transform="translate(-1 -1.1)"/><path d="M52.63,74.39c-.2,0-.3-.09-.3-.28v-7l-1.47.56a.93.93,0,0,1-.19.07h-.11a.21.21,0,0,1-.23-.23v-.72l.59-.26c.7-.3,1.24-.51,1.6-.64a3,3,0,0,1,.79-.18.3.3,0,0,1,.25.08.32.32,0,0,1,.07.2v8.35Z" transform="translate(-1 -1.1)"/><path d="M59.43,74.53a3.24,3.24,0,0,1-2.1-.6,2.23,2.23,0,0,1-.74-1.84,2.65,2.65,0,0,1,.29-1.25,1.94,1.94,0,0,1,1-.87,1.74,1.74,0,0,1-.82-.81A2.65,2.65,0,0,1,56.82,68a2.14,2.14,0,0,1,.65-1.69,2.78,2.78,0,0,1,2-.59,2.81,2.81,0,0,1,1.95.59A2.18,2.18,0,0,1,62,68a2.52,2.52,0,0,1-.25,1.12A1.68,1.68,0,0,1,61,70a2,2,0,0,1,1,.86,2.66,2.66,0,0,1,.28,1.26,2.25,2.25,0,0,1-.72,1.84A3.19,3.19,0,0,1,59.43,74.53Zm0-1a1.75,1.75,0,0,0,1.16-.35A1.4,1.4,0,0,0,61,72a2.88,2.88,0,0,0-.06-.59,1.08,1.08,0,0,0-.23-.48,1.3,1.3,0,0,0-.48-.32,2.25,2.25,0,0,0-.79-.11,2.21,2.21,0,0,0-.79.11,1.16,1.16,0,0,0-.48.32,1.08,1.08,0,0,0-.23.48,2.32,2.32,0,0,0-.07.59,1.4,1.4,0,0,0,.41,1.14A1.73,1.73,0,0,0,59.42,73.5Zm0-4a1.89,1.89,0,0,0,.73-.12,1.07,1.07,0,0,0,.42-.31,1,1,0,0,0,.19-.45,3.05,3.05,0,0,0,.05-.52,1.36,1.36,0,0,0-.34-1,1.44,1.44,0,0,0-1-.33,1.48,1.48,0,0,0-1.06.33,1.36,1.36,0,0,0-.33,1,3,3,0,0,0,0,.52,1.14,1.14,0,0,0,.19.45,1.11,1.11,0,0,0,.43.31A1.82,1.82,0,0,0,59.42,69.5Z" transform="translate(-1 -1.1)"/></svg>